# xmcd
#
# Track frame offsets: 
#        150
#        13867
#        27455
#        42945
#
# Disc length: 915 seconds
#
# Revision: 3
# Processed by: cddbd v1.5.2PL0 Copyright (c) Steve Scherf et al.
# Submitted via: ExactAudioCopyFreeDBPlugin 1.0
#
DISCID=2c039104
DTITLE=KEB' MO' - Slow Down [CD 2-2]
DYEAR=1998
DGENRE=Blues
TTITLE0=More Than One Way Home
TTITLE1=Every Morning
TTITLE2=Just Like You
TTITLE3=Dangerous Mood [Live from The Plant]
EXTD=
EXTT0=
EXTT1=
EXTT2=
EXTT3=
PLAYORDER=
